<?xml version="1.0" encoding="UTF-8"?>
<svg id="Layer_2" data-name="Layer 2" xmlns="http://www.w3.org/2000/svg" viewBox="0 0 293.01 337.51">
  <defs>
    <style>
      .cls-1 {
        fill: none;
        stroke: #4260a5;
        stroke-linecap: round;
        stroke-width: 13px;
      }

      .cls-1, .cls-2 {
        stroke-miterlimit: 10;
      }

      .cls-3 {
        stroke-width: 0px;
      }

      .cls-3, .cls-2 {
        fill: #4260a5;
      }

      .cls-2 {
        stroke: #fff;
        stroke-width: 6px;
      }
    </style>
  </defs>
  <g id="Layer_1-2" data-name="Layer 1">
    <path class="cls-2" d="M149.9,99.94c-4.48,0-8.09,3.61-8.09,8.09s3.61,8.09,8.09,8.09h8.67l11.67,21.58h-50.38l-9.24-12.81c-1.52-2.12-3.98-3.37-6.58-3.37h-18.88c-4.48,0-8.09,3.61-8.09,8.09s3.61,8.09,8.09,8.09h14.74l7.45,10.35-8.97,17.91c-3.37-.84-6.91-1.28-10.52-1.28-23.84,0-43.16,19.32-43.16,43.16s19.32,43.16,43.16,43.16c22.02,0,40.16-16.49,42.83-37.77h16.52c2.87,0,5.5-1.52,6.98-3.98l28.6-48.39,7.32,13.52c-9.71,7.92-15.92,19.96-15.92,33.45,0,23.84,19.32,43.16,43.16,43.16s43.16-19.32,43.16-43.16-19.32-43.16-43.16-43.16c-4.55,0-8.94.71-13.05,2.02l-33.01-61.1c-1.89-3.51-5.53-5.67-9.51-5.67h-11.87ZM199.34,191.57l10.89,20.13c2.12,3.95,7.05,5.4,10.96,3.27,3.91-2.12,5.4-7.05,3.27-10.96l-10.89-20.13c1.21-.2,2.5-.3,3.78-.3,13.42,0,24.28,10.86,24.28,24.28s-10.86,24.28-24.28,24.28-24.28-10.86-24.28-24.28c0-6.27,2.36-11.97,6.27-16.29h0ZM89.61,213.25h21.92c-2.46,10.82-12.14,18.88-23.67,18.88-13.42,0-24.28-10.86-24.28-24.28s10.86-24.28,24.28-24.28c.57,0,1.15.03,1.72.07l-8.16,16.35c-3.03,6.1,1.38,13.29,8.19,13.29v-.03ZM100.97,197.06l17.1-34.16,24.58,34.13-.03.03-37.11-.06-4.54.06ZM131.52,153.9h36.55l-16.49,27.92-20.1-27.92h.03Z"/>
    <path class="cls-3" d="M27.51,0c-7.72,0-14,6.28-14,14v70c0,7.72,6.28,14,14,14h70c7.72,0,14-6.28,14-14V14c0-7.72-6.28-14-14-14H27.51ZM55.51,49h10.5c3.87,0,7-3.13,7-7s-3.13-7-7-7h-10.5v14ZM66.01,63h-10.5v7c0,3.87-3.13,7-7,7s-7-3.13-7-7V29.75c0-4.83,3.92-8.75,8.75-8.75h15.75c11.59,0,21,9.41,21,21s-9.41,21-21,21Z"/>
    <polygon class="cls-3" points="33.51 143 108.38 71 33.51 71 33.51 143"/>
    <path class="cls-1" d="M157.3,51.42c77.09,5.96,134.75,73.29,128.79,150.38-5.96,77.09-73.29,134.75-150.38,128.79S.96,257.29,6.92,180.2"/>
    <rect class="cls-3" x="19.51" y="9" width="75" height="75"/>
  </g>
</svg>